<svg id="Capa_1" data-name="Capa 1" xmlns="http://www.w3.org/2000/svg" viewBox="0 0 259.74 15.53"><defs><style>.cls-1{fill:#fff;}</style></defs><title>img-title</title><path class="cls-1" d="M351.66,666.65h-4.84v12.62h-3V666.65H339v-2.59h12.66Z" transform="translate(-339 -663.91)"/><path class="cls-1" d="M366.36,664.06v15.21h-2.93v-6.49h-6.9v6.49h-3V664.06h3v6.15h6.9v-6.15Z" transform="translate(-339 -663.91)"/><path class="cls-1" d="M380.1,676.68v2.59H369.54V664.06h10.37v2.59h-7.41v3.67h6.41v2.4h-6.41v4Z" transform="translate(-339 -663.91)"/><path class="cls-1" d="M399.86,675.35a3.44,3.44,0,0,1-1.45,2.91,5,5,0,0,1-1.56.75,6.82,6.82,0,0,1-1.9.26H387.6V664.06h8.14a3,3,0,0,1,1.44.34,3.57,3.57,0,0,1,1.09.89,4.06,4.06,0,0,1,.7,1.24,4.19,4.19,0,0,1,.25,1.4,4.14,4.14,0,0,1-.56,2.09,3.39,3.39,0,0,1-1.63,1.45,3.92,3.92,0,0,1,2.07,1.38A4,4,0,0,1,399.86,675.35Zm-9.3-8.76v3.83h3.94a1.75,1.75,0,0,0,1.27-.51,1.89,1.89,0,0,0,.52-1.41,2,2,0,0,0-.48-1.39,1.57,1.57,0,0,0-1.19-.51Zm6.32,8.21a2.23,2.23,0,0,0-.14-.78,2.16,2.16,0,0,0-.37-.65,1.72,1.72,0,0,0-.56-.44,1.55,1.55,0,0,0-.71-.16h-4.54v4H395a1.91,1.91,0,0,0,.76-.15,1.83,1.83,0,0,0,.61-.42,2,2,0,0,0,.56-1.4Z" transform="translate(-339 -663.91)"/><path class="cls-1" d="M412.74,676.68v2.59H402.17V664.06h10.37v2.59h-7.41v3.67h6.41v2.4h-6.41v4Z" transform="translate(-339 -663.91)"/><path class="cls-1" d="M424,668a3.7,3.7,0,0,0-.55-.41,6.49,6.49,0,0,0-1-.5,8.43,8.43,0,0,0-1.23-.42,5.42,5.42,0,0,0-1.35-.17,3,3,0,0,0-1.82.45,1.49,1.49,0,0,0-.6,1.26,1.29,1.29,0,0,0,.22.78,1.94,1.94,0,0,0,.65.55,5.54,5.54,0,0,0,1.08.43q.65.19,1.51.41,1.11.3,2,.64a5.5,5.5,0,0,1,1.54.86,3.54,3.54,0,0,1,1,1.23,4.08,4.08,0,0,1,.34,1.77,4.41,4.41,0,0,1-.46,2.09,3.91,3.91,0,0,1-1.23,1.4,5.26,5.26,0,0,1-1.8.78,9.18,9.18,0,0,1-2.14.25,11.43,11.43,0,0,1-3.39-.51,10.45,10.45,0,0,1-3-1.46l1.31-2.55a4.16,4.16,0,0,0,.7.5A10.66,10.66,0,0,0,417,676a9.22,9.22,0,0,0,1.52.52,6.87,6.87,0,0,0,1.71.21q2.44,0,2.44-1.56a1.32,1.32,0,0,0-.28-.86,2.36,2.36,0,0,0-.79-.6,7.67,7.67,0,0,0-1.24-.47l-1.63-.45a13.92,13.92,0,0,1-1.9-.65,5.14,5.14,0,0,1-1.34-.82,3,3,0,0,1-.8-1.11,3.94,3.94,0,0,1-.27-1.52,4.73,4.73,0,0,1,.43-2.06,4.18,4.18,0,0,1,1.19-1.5,5.41,5.41,0,0,1,1.77-.91A7.35,7.35,0,0,1,420,664a8.38,8.38,0,0,1,3,.5,11,11,0,0,1,2.36,1.19Z" transform="translate(-339 -663.91)"/><path class="cls-1" d="M439.39,666.65h-4.84v12.62h-3V666.65h-4.86v-2.59h12.66Z" transform="translate(-339 -663.91)"/><path class="cls-1" d="M458.23,679.27V669.2l-3.92,7.5H452.7l-3.92-7.5v10.07h-3V664.06H449l4.5,8.66,4.54-8.66h3.15v15.21Z" transform="translate(-339 -663.91)"/><path class="cls-1" d="M470.68,679.38a6.55,6.55,0,0,1-2.94-.65,7.3,7.3,0,0,1-2.28-1.74,7.76,7.76,0,0,1-1.47-2.47,8.17,8.17,0,0,1-.51-2.85,8,8,0,0,1,2.07-5.38,7.33,7.33,0,0,1,2.3-1.7,6.63,6.63,0,0,1,2.89-.63,6.39,6.39,0,0,1,2.94.67,7.37,7.37,0,0,1,2.27,1.77,8.26,8.26,0,0,1,2,5.31,7.83,7.83,0,0,1-.55,2.9,7.92,7.92,0,0,1-1.51,2.44,7.3,7.3,0,0,1-2.29,1.69A6.64,6.64,0,0,1,470.68,679.38Zm-4.22-7.71a6.32,6.32,0,0,0,.29,1.91,5.16,5.16,0,0,0,.84,1.63,4.19,4.19,0,0,0,1.34,1.14,3.72,3.72,0,0,0,1.8.43,3.63,3.63,0,0,0,1.81-.44,4.12,4.12,0,0,0,1.32-1.17,5.44,5.44,0,0,0,.81-1.64,6.33,6.33,0,0,0,.28-1.85,6.13,6.13,0,0,0-.3-1.91,5.37,5.37,0,0,0-.85-1.63,4.11,4.11,0,0,0-1.33-1.12,4,4,0,0,0-3.58,0,4.31,4.31,0,0,0-1.33,1.16,5.14,5.14,0,0,0-.82,1.63A6.27,6.27,0,0,0,466.46,671.67Z" transform="translate(-339 -663.91)"/><path class="cls-1" d="M481.2,664.06l4.11,11.51,4.07-11.51h3.11l-5.94,15.21h-2.49l-6-15.21Z" transform="translate(-339 -663.91)"/><path class="cls-1" d="M494.1,679.27V664.08h3v15.19Z" transform="translate(-339 -663.91)"/><path class="cls-1" d="M510.79,676.68v2.59H500.23V664.06H510.6v2.59h-7.41v3.67h6.41v2.4h-6.41v4Z" transform="translate(-339 -663.91)"/><path class="cls-1" d="M518.29,679.27V664.06h10.22v2.59h-7.26v3.92h6V673h-6v6.3Z" transform="translate(-339 -663.91)"/><path class="cls-1" d="M530.53,679.27V664.08h3v15.19Z" transform="translate(-339 -663.91)"/><path class="cls-1" d="M539.62,669.52v9.75h-3V664.06H539l7.93,10v-10h3v15.19h-2.4Z" transform="translate(-339 -663.91)"/><path class="cls-1" d="M553,679.27V664.06h5.53a8.24,8.24,0,0,1,3.27.6,6.56,6.56,0,0,1,3.76,4,9.07,9.07,0,0,1,.47,2.95,8.92,8.92,0,0,1-.52,3.14,6.71,6.71,0,0,1-1.51,2.4,6.81,6.81,0,0,1-2.37,1.54,8.35,8.35,0,0,1-3.1.55Zm10-7.63a6.5,6.5,0,0,0-.3-2,4.52,4.52,0,0,0-.88-1.59,3.92,3.92,0,0,0-1.42-1,4.82,4.82,0,0,0-1.92-.36H556v10h2.57a4.64,4.64,0,0,0,1.94-.39,4,4,0,0,0,1.41-1.06,4.72,4.72,0,0,0,.87-1.6A6.41,6.41,0,0,0,563.06,671.64Z" transform="translate(-339 -663.91)"/><path class="cls-1" d="M579,676.68v2.59H568.39V664.06h10.37v2.59h-7.41v3.67h6.41v2.4h-6.41v4Z" transform="translate(-339 -663.91)"/><path class="cls-1" d="M581.34,679.27V664.06h6.73a4.34,4.34,0,0,1,1.94.44,5,5,0,0,1,1.53,1.16,5.49,5.49,0,0,1,1,1.63,4.9,4.9,0,0,1,.36,1.83,5.06,5.06,0,0,1-.74,2.69,4.24,4.24,0,0,1-2,1.75l3.58,5.72H590.4l-3.19-5.1h-2.91v5.1Zm3-7.69H588a1.56,1.56,0,0,0,.76-.19,2,2,0,0,0,.61-.52,2.64,2.64,0,0,0,.41-.78,3,3,0,0,0,.15-1,2.75,2.75,0,0,0-.17-1,2.57,2.57,0,0,0-.46-.78,2.11,2.11,0,0,0-.66-.51,1.72,1.72,0,0,0-.76-.18h-3.58Z" transform="translate(-339 -663.91)"/><path class="cls-1" d="M595.87,673.55v-9.64h2.87v9.64Zm0,5.72V676h2.87v3.23Z" transform="translate(-339 -663.91)"/></svg>