<svg id="Capa_1" data-name="Capa 1" xmlns="http://www.w3.org/2000/svg" xmlns:xlink="http://www.w3.org/1999/xlink" viewBox="0 0 56.17 8.89"><defs><style>.cls-1{fill:#fff;}.cls-2{fill:url(#Degradado_sin_nombre_3);}.cls-3{fill:url(#Degradado_sin_nombre_3-2);}.cls-4{fill:url(#Degradado_sin_nombre_3-3);}</style><linearGradient id="Degradado_sin_nombre_3" x1="-249.1" y1="198.32" x2="-253.13" y2="205.3" gradientUnits="userSpaceOnUse"><stop offset="0" stop-color="#e100ff"/><stop offset="1" stop-color="#7f00ff"/></linearGradient><linearGradient id="Degradado_sin_nombre_3-2" x1="-243.69" y1="197.39" x2="-247.72" y2="204.37" xlink:href="#Degradado_sin_nombre_3"/><linearGradient id="Degradado_sin_nombre_3-3" x1="-238.09" y1="196.86" x2="-243" y2="205.35" xlink:href="#Degradado_sin_nombre_3"/></defs><title>Logo</title><path class="cls-1" d="M-285.22,199l-2.73,3.65h-.31l-2.67-3.66v6.1h-1.58v-8.4h1.82l2.63,3.61,2.63-3.61h1.81v8.4h-1.58Z" transform="translate(292.53 -196.68)"/><path class="cls-1" d="M-268.55,205.11h-1.64l-3.49-8.43h1.77l2.53,6.54,2.54-6.54h1.77Z" transform="translate(292.53 -196.68)"/><path class="cls-1" d="M-264.07,205.08v-8.4h1.57v8.4Z" transform="translate(292.53 -196.68)"/><path class="cls-1" d="M-254.75,205.08H-261v-8.4h6.28v1.54h-4.71v1.93h4.55v1.48h-4.55v1.9h4.71Z" transform="translate(292.53 -196.68)"/><path class="cls-2" d="M-251.94,196.68v6.93h4.32v1.46h-5.9v-8.4Z" transform="translate(292.53 -196.68)"/><path class="cls-3" d="M-246.49,205.08v-8.4h1.57v8.4Z" transform="translate(292.53 -196.68)"/><path class="cls-4" d="M-236.61,199.11a1.71,1.71,0,0,1-1.09,1.62,2,2,0,0,1,1.34,1.87c0,1.87-1.4,2.47-3.14,2.47h-4v-8.4h4C-237.84,196.68-236.61,197.42-236.61,199.11Zm-5.31.94h2.42c1,0,1.32-.42,1.32-.9s-.31-1-1.32-1h-2.42Zm0,3.55h2.42c.65,0,1.57-.22,1.57-1s-.92-1.15-1.57-1.15h-2.42Z" transform="translate(292.53 -196.68)"/><path class="cls-1" d="M-278.1,196.82a4.19,4.19,0,0,0-4.32,4.43,4.09,4.09,0,0,0,4.32,4.33,4.12,4.12,0,0,0,4.31-4.34A4.17,4.17,0,0,0-278.1,196.82Zm-2.51,5.38a1,1,0,0,1-1-1,1,1,0,0,1,1-1,1,1,0,0,1,1,1A1,1,0,0,1-280.6,202.19Zm2.5,2.5a1,1,0,0,1-1-1,1,1,0,0,1,1-1,1,1,0,0,1,1,1A1,1,0,0,1-278.1,204.69Zm0-5a1,1,0,0,1-1-1,1,1,0,0,1,1-1,1,1,0,0,1,1,1A1,1,0,0,1-278.1,199.69Zm2.5,2.5a1,1,0,0,1-1-1,1,1,0,0,1,1-1,1,1,0,0,1,1,1A1,1,0,0,1-275.6,202.19Z" transform="translate(292.53 -196.68)"/></svg>